<svg id="Layer_1" enable-background="new 0 0 68 68" viewBox="0 0 68 68" xmlns="http://www.w3.org/2000/svg"><g><g><g><g><path d="m59.34719 18.5239v43.4695c0 1.79867-1.45811 3.25679-3.25678 3.25679h-40.39211c-1.79867 0-3.25678-1.45811-3.25678-3.25679v-55.98644c0-1.79867 1.45811-3.25678 3.25678-3.25678h27.87491z" fill="#fff"/></g><g opacity=".5"><path d="m54.28842 13.46526v51.78493h1.80199c1.79855 0 3.25678-1.45811 3.25678-3.25679v-43.4695z" fill="#eaeaea"/></g><g opacity=".5"><path d="m18.23828 2.75018h-2.53998c-1.79855 0-3.25678 1.4581-3.25678 3.25678v55.98644c0 1.79868 1.45824 3.25679 3.25678 3.25679h2.53998z" fill="#eaeaea"/></g><g opacity=".5"><path d="m22.283 2.75h3.148v62.5h-3.148z" fill="#eaeaea"/></g><g><path d="m59.34719 18.5239h-12.5172c-1.79867 0-3.25678-1.45811-3.25678-3.25678v-12.51694z" fill="#f33"/></g></g><g><g><path d="m37.14392 44.33741v10.03232c0 1.27406-1.03283 2.30688-2.30688 2.30688h-24.18697c-1.10457 0-2-.89543-2-2v-10.6461c0-1.10457.89543-2 2-2h24.18697c1.27406.00001 2.30688 1.03284 2.30688 2.3069z" fill="#f33"/></g><g><path d="m15.33981 42.03073v14.64568h-4.68974c-1.10457 0-2-.89543-2-2v-10.64568c0-1.10457.89543-2 2-2z" fill="#ef0a0a"/></g><g><path d="m20 42.031h3.634v14.646h-3.634z" fill="#ef0a0a"/></g><g fill="#fff"><path d="m17.90118 46.26758c.67285 0 1.19531.15869 1.56836.47559.37207.31689.55859.78125.55859 1.39258 0 .61182-.18652 1.0791-.55859 1.40137-.37305.32275-.89551.48389-1.56836.48389h-1.33496v1.85986c0 .06104-.02148.11377-.06641.1582-.04492.04492-.09766.06689-.1582.06689h-.67578c-.06152 0-.11426-.02197-.1582-.06689-.04492-.04443-.06738-.09717-.06738-.1582v-5.38818c0-.06104.02246-.11377.06738-.1582.04395-.04443.09668-.06689.1582-.06689h2.23535zm-1.33496 2.71094h1.29297c.31738 0 .57031-.06299.75879-.18799.18945-.125.28418-.34326.28418-.65479 0-.31104-.09473-.52637-.28418-.64648-.18848-.11914-.44141-.1792-.75879-.1792h-1.29297z"/><path d="m23.22247 46.26758c.41113 0 .76855.0542 1.07129.1626s.55566.2627.75879.46289.3584.44189.46777.72559c.1084.28369.17285.60059.19531.95117.02246.41113.02246.82275 0 1.23438-.02246.3501-.08691.66699-.19531.95068-.10938.28369-.26367.52539-.46289.72559-.2002.2002-.44922.35449-.74707.46289s-.64648.1626-1.04688.1626h-2.10156c-.06152 0-.11426-.02197-.1582-.06689-.04492-.04443-.06738-.09717-.06738-.1582v-5.38818c0-.06104.02246-.11377.06738-.1582.04395-.04443.09668-.06689.1582-.06689h2.06055zm1.36719 2.30224c-.01074-.17822-.0459-.34326-.10449-.49658-.05762-.15283-.14453-.28613-.25781-.40039-.11426-.11377-.25781-.20264-.42969-.2666-.17285-.06396-.37793-.09619-.61719-.09619h-1.11816v3.75342h1.16016c.22754 0 .4248-.03223.5918-.09619.16699-.06348.30566-.15137.41699-.2627.11133-.11084.19629-.24463.25391-.40039.05859-.15527.09375-.32227.10449-.5.02245-.41162.02245-.82324-.00001-1.23438z"/><path d="m30.59454 46.26758c.06152 0 .11426.02246.15918.06689.04395.04443.06641.09717.06641.1582v.59229c0 .06104-.02246.11426-.06641.15869-.04492.04443-.09766.06641-.15918.06641h-2.66016v1.61816h2.49414c.06055 0 .11328.02246.1582.06689.04395.04443.06641.09717.06641.1582v.59229c0 .06104-.02246.11426-.06641.15869-.04492.04443-.09766.06641-.1582.06641h-2.49414v1.91016c0 .06104-.02246.11377-.06641.1582-.04492.04492-.09766.06689-.15918.06689h-.67479c-.06152 0-.11426-.02197-.15918-.06689-.04395-.04443-.06641-.09717-.06641-.1582v-5.38818c0-.06104.02246-.11377.06641-.1582.04492-.04443.09766-.06689.15918-.06689h3.56054z"/></g></g><g><path d="m44.28497 40.84473c-1.14355 0-2.41748-.54736-3.46143-1.59131-.54834-.54785-1.72021-3.09912-3.04199-6.3335-.4541-.11865-.92529-.22461-1.41113-.31396-1.97949-.36426-4.0957-.54736-6.04199-.62012-2.38574 2.61523-4.68359 4.44287-5.47754 4.73486-2.34961.86328-4.70313.14941-5.35645-1.62598 0 0 0 0 0-.00049-.33105-.90039-.14893-1.93799.49951-2.84668.57568-.80762 1.4751-1.46582 2.53174-1.854.73096-.26855 3.56494-.49561 6.92139-.4248.95752-1.09863 1.92529-2.33887 2.79199-3.67432.67969-1.04688 1.28223-2.14844 1.80566-3.22803-1.26904-3.59375-2.19629-6.54297-2.19629-7.21826 0-2.50439 1.48193-4.46631 3.37402-4.46631 1.88818 0 3.36719 1.96191 3.36719 4.46631 0 .79492-.81738 3.92139-2.39893 7.36279.95068 2.61133 2.0625 5.51855 3.08154 8.05518 3.36328 1.04297 5.73096 2.63379 6.31787 3.2207.79688.79688 1.33643 1.77246 1.51904 2.74707.20557 1.09766-.06641 2.11719-.74658 2.79736-.54832.54786-1.28123.81349-2.07762.81349zm-3.99463-7.09668c.90869 2.16309 1.64209 3.74219 1.95605 4.10059.98926.98877 2.24414 1.22412 2.70215.76807.28223-.28223.24316-.75635.19482-1.01416-.10742-.57422-.46045-1.19434-.96729-1.70166-.32762-.32765-1.76121-1.30128-3.88573-2.15284zm-18.91894.65674c.22461.60889 1.46582.9248 2.78955.43896.34912-.14551 1.74072-1.21289 3.4292-2.89258-2.29248.02734-4.00049.19141-4.37646.32031-.67139.24658-1.25195.66113-1.59131 1.13721-.15235.21289-.38672.62598-.25098.9961zm10.59228-4.32911c1.61279.10449 3.25293.28418 4.76904.56348.04883.00879.09766.01807.14648.02734-.64404-1.63867-1.29736-3.36279-1.91113-5.03564-.32861.5918-.6792 1.1792-1.05127 1.75244-.6079.93701-1.2705 1.84082-1.95312 2.69238zm3.25879-16.69384c-.64844 0-1.37402 1.05469-1.37402 2.46631.01904.52344.55566 2.27393 1.35156 4.57617.90967-2.31494 1.38037-4.16406 1.38965-4.57813 0-1.40967-.72168-2.46435-1.36719-2.46435z" fill="#f91c1c"/></g></g><g><g><path d="m59.8894 18.01392c-.09521-.1004-15.63281-15.64783-15.823-15.81653-.15893-.14032-.39379-.19739-.49682-.19739h-27.86963c-2.21143 0-4.01025 1.79883-4.01025 4.01025v35.2749h-1.03955c-1.5166 0-2.75 1.2334-2.75 2.75v10.646c0 1.51611 1.2334 2.75 2.75 2.75h1.03955v4.56885c0 2.20557 1.79883 4 4.01025 4h40.38965c2.21143 0 4.01025-1.79443 4.01025-4v-43.46973c0-.1408-.07324-.37146-.21045-.51635zm-15.5664-13.44849 13.21387 13.21289h-10.70704c-1.38232 0-2.50684-1.12451-2.50684-2.50635v-10.70654zm-34.92285 50.11572v-10.646c0-.68945.56055-1.25 1.25-1.25h24.18701c.8584 0 1.55664.69824 1.55664 1.55664v10.03271c0 .8584-.69824 1.55664-1.55664 1.55664-8.15453 0-12.50928 0-24.18701 0-.68946.00001-1.25-.56053-1.25-1.24999zm49.1997 7.31885c0 1.37842-1.12598 2.5-2.51025 2.5h-40.38965c-1.38428 0-2.51025-1.12158-2.51025-2.5v-4.56885h21.64746c1.68555 0 3.05664-1.37109 3.05664-3.05664v-10.03271c0-1.68555-1.37109-3.05664-3.05664-3.05664h-21.64746v-35.27491c0-1.38428 1.12598-2.51025 2.51025-2.51025h27.12305v11.77197c0 2.20898 1.79736 4.00635 4.00684 4.00635h11.77002v42.72168z"/></g></g></g></svg>